<svg width="2296" height="1138" viewBox="0 0 2296 1138" fill="none" xmlns="http://www.w3.org/2000/svg">
<g clip-path="url(#clip0_1_54)">
<path d="M922.58 735.76H674.64C674.83 736.03 675.05 736.33 675.24 736.63H928.22C926.31 736.36 924.43 736.09 922.58 735.76ZM652.85 576.78L617.99 576.51L659.42 687.26L694.12 687.18L652.86 576.79L652.85 576.78ZM543.85 576.48L557.41 612.7C573.86 614.8 586.2 618.37 596.44 624.25L578.55 576.45L543.85 576.48ZM368.82 229.61L369.12 362.47L486.78 173.85L454.07 188.56C425.17 201.5 397.5 215.06 368.82 229.61ZM726.91 576.67L692.1 576.51L733.47 687.15L768.28 687.29L726.91 576.68V576.67Z" fill="white"/>
<path d="M659.41 687.25L617.98 576.5L652.84 576.77L694.1 687.16L659.4 687.24L659.41 687.25Z" fill="white"/>
<path d="M853.72 695.99C847.05 689.64 840.7 682.59 834.65 674.85C816.67 650.91 801.48 622.83 780.15 576.69C778.3 572.69 776.42 568.55 774.46 564.27C746.81 500.83 740.3 489.45 727.31 471.55C717.53 458.53 704.54 448.78 689.89 439.03C662.24 422.77 631.36 414.62 582.55 414.62H387.4C398.79 401.6 410.17 393.48 445.93 378.86L481.72 364.21L732.19 250.36L873.69 -0.109985L486.79 173.85L369.13 362.47L368.83 229.61C350.69 238.82 332.14 248.43 312.58 258.51C260.2 287.27 221.44 312.14 192.22 335.56C175.14 349.23 161.33 362.42 149.95 375.6C120.1 410.9 106.07 442.77 94.71 503.34C92.45 515.38 90.27 528.53 88.12 543.11L81.64 587.04C104.41 600.03 119.04 604.93 161.34 606.54C162.92 606.62 164.42 606.7 165.89 606.78C193.18 608.33 203.18 609.8 255.66 609.8H486.6C497.69 609.8 507.79 609.88 517 610.1C532.85 610.45 546.12 611.24 557.42 612.69L543.86 576.47L578.56 576.44L596.45 624.24C612.3 633.36 623.09 648.07 636.24 671.6L654.14 704.12C662.09 716.87 665.39 721.82 674.65 735.74H922.59C924.44 736.07 926.32 736.34 928.23 736.61H934.74C902.84 731.16 876.42 717.63 853.74 695.97L853.72 695.99ZM733.47 687.14L692.1 576.5L726.91 576.66L768.28 687.27L733.47 687.13V687.14Z" fill="white"/>
<path d="M934.73 737.45L871.29 921.25C820.87 909.84 776.97 880.56 744.45 836.65L707.03 932.61H282.57C204.51 932.61 157.33 926.13 119.91 908.21C72.76 887.1 32.1 844.77 -0.420013 786.21V540.67C32.1 623.58 72.77 675.63 136.2 711.42C171.85 731.58 189.78 735.47 270.23 735.77C274.18 735.82 278.29 735.82 282.57 735.82H663.13C663.13 735.82 663.13 735.77 663.1 735.77H922.59C924.44 736.1 926.32 736.37 928.23 736.64C930.38 736.94 932.56 737.21 934.74 737.46L934.73 737.45Z" fill="white"/>
<path d="M1440.68 759.31C1440.54 745.2 1440.4 731.08 1440.26 716.97V687.31H1317.48V716.97H1190.22V425.04C1190.22 422.15 1190.28 419.38 1190.44 416.68C1192.78 367.11 1216.81 348.01 1253.85 348.01C1292.94 348.01 1317.48 369.23 1317.48 425.04V650.28H1378.35L1440.26 650.29V432.86C1440.26 307.84 1374.4 236.4 1253.85 236.4C1247.99 236.4 1242.25 236.56 1236.66 236.91C1127.06 243.48 1067.44 313.91 1067.44 432.86V839.75H1329.08C1265.53 943.94 1198.56 987.24 1103.91 987.24C1068.01 987.24 1007.65 978.61 967.42 965.7L935.83 955.65C930.08 952.76 924.33 952.76 920.03 952.76C912.84 952.76 907.09 957.06 907.09 962.81C907.09 970 912.84 978.61 925.75 990.13C948.74 1011.67 978.92 1036.11 1011.96 1059.07C1089.55 1115.12 1144.14 1138.11 1204.5 1138.11C1287.81 1138.11 1359.67 1080.64 1399.9 982.94C1410.74 956.61 1435.29 905.74 1440.26 839.75C1440.95 830.59 1441.18 822.93 1441.25 817.56C1441.06 798.14 1440.87 778.73 1440.68 759.31Z" fill="white"/>
<path d="M2197.3 581.6C2185.8 567.23 2177.18 552.86 2171.43 539.93C2165.69 531.31 2155.63 508.32 2141.26 473.84C2062.24 288.5 1928.62 157.76 1823.74 157.76C1786.38 157.76 1759.09 175 1731.79 216.66C1698.74 266.95 1680.07 310.05 1680.07 330.17C1680.07 340.22 1682.94 350.28 1687.25 354.59L1698.74 367.52C1701.62 371.83 1704.49 374.71 1704.49 377.58C1704.49 380.45 1701.62 384.76 1697.31 390.51C1688.69 402 1675.75 430.74 1665.7 458.04C1652.77 491.08 1645.58 521.25 1645.58 547.11C1645.58 583.03 1658.51 613.21 1682.94 637.63C1659.95 640.51 1649.9 640.51 1629.78 640.51C1546.64 640.51 1485.97 618.64 1440.26 568.97C1415.69 542.26 1395.44 507.5 1378.35 463.78V650.29H1440.27L1870.19 650.31C1855.51 645.85 1839.63 642.15 1822.3 639.07C1886.96 598.84 1941.55 514.07 1941.55 453.73C1941.55 446.54 1940.12 436.48 1938.68 422.12C1974.6 485.34 2007.64 565.79 2007.64 593.09C2007.64 602.34 2001.75 618.96 1989.98 650.31C1986.02 660.87 1981.38 673.1 1976.08 687.29C1975.12 689.83 1974.15 692.43 1973.16 695.1L1968.85 706.6C1961.55 699.58 1953.97 693.16 1946.02 687.29L1440.27 687.31H1382.1C1399.09 716.43 1418.89 740.71 1440.68 759.31C1455.04 771.58 1470.27 781.39 1486.11 788.49C1519.15 804.29 1560.82 810.04 1628.34 810.04H1746.16C1797.88 810.04 1807.94 808.6 1823.74 814.35C1833.8 814.35 1845.29 820.1 1856.79 825.85C1876.9 835.9 1907.07 853.14 1938.68 873.26C1947.3 879.01 1963.11 889.06 1986.09 904.87C2006.21 919.23 2016.26 923.54 2024.89 923.54C2045 923.54 2056.5 907.74 2080.92 847.4C2105.34 788.49 2111.09 776.99 2122.59 739.64L2126.89 725.27C2155.63 764.06 2194.42 789.93 2238.96 799.98L2296.43 637.63C2253.33 633.32 2226.03 617.52 2197.3 581.6ZM1756.21 603.15C1734.66 578.72 1727.48 560.05 1727.48 532.75C1727.48 491.08 1751.9 435.05 1787.82 393.38C1807.94 371.83 1826.62 360.34 1843.86 360.34C1866.84 360.34 1881.21 377.58 1881.21 403.44C1881.21 458.04 1828.05 544.24 1756.21 603.15Z" fill="white"/>
<path d="M1946.02 687.29L1440.27 687.31H1317.48V650.28H1378.35L1440.27 650.29L1870.19 650.31C1899.6 659.23 1924.21 671.18 1946.02 687.29Z" fill="white"/>
<path d="M1190.22 650.27H1317.48V687.31H1039.56C1052.31 710.62 1056.61 734.92 1053.99 761.77L943.33 761.8L942.92 739.77C935.02 730.64 925.82 723.67 914.95 717.49C895.34 707.49 874.99 700.6 853.72 696C847.05 689.65 840.7 682.6 834.65 674.86C816.68 650.92 801.48 622.84 780.15 576.7C859.63 577.3 949.02 595.74 1009.43 650.26H1190.22V650.27Z" fill="#A61C24"/>
<path d="M2263.35 650.32V687.28H1976.08L1946.02 687.29C1924.21 671.18 1899.6 659.23 1870.19 650.31H2263.35V650.32Z" fill="#A61C24"/>
<path d="M192.21 335.56C175.13 349.23 161.32 362.42 149.94 375.6C120.09 410.9 106.06 442.77 94.7 503.34C84.21 477.85 77.21 450.58 74.24 422.12C55.91 246.63 194.93 94.84 363.69 94.35L536.67 93.89L486.77 173.86L369.11 362.48L368.81 229.62L368.76 205.54C285.71 205.89 215.71 260.39 192.21 335.57V335.56Z" fill="#A61C24"/>
<path d="M545.97 687.25L511.92 687.88C481.93 690.88 458.04 709.64 448.02 735.82C444.81 744.15 443.01 753.28 442.9 762.87C442.76 774.72 430.62 781.91 421.57 780.11C405.09 776.84 403.21 757.34 409.07 735.82C413.76 718.5 423.48 699.89 434.62 687.53L350.46 686.85C279.37 682.6 214.79 652.94 165.87 606.8C193.16 608.35 203.16 609.82 255.64 609.82H486.58C497.67 609.82 507.77 609.9 516.98 610.12L545.96 687.26L545.97 687.25Z" fill="#A61C24"/>
<path d="M768.28 687.28L733.47 687.14L692.1 576.5L726.91 576.67L768.28 687.28Z" fill="#A61C24"/>
<path d="M620 687.17L585.3 687.25L557.41 612.7L543.85 576.48L578.55 576.45L596.44 624.25L620 687.17Z" fill="#A61C24"/>
<path d="M694.11 687.17L659.41 687.25L617.99 576.5L652.85 576.78L694.11 687.17Z" fill="#A61C24"/>
</g>
<defs>
<clipPath id="clip0_1_54">
<rect width="2296" height="1138" fill="white"/>
</clipPath>
</defs>
</svg>
